<?xml version="1.0" encoding="UTF-8"?>
<svg width="40px" height="40px" viewBox="0 0 40 40" version="1.1" xmlns="http://www.w3.org/2000/svg" xmlns:xlink="http://www.w3.org/1999/xlink">
    <!-- Generator: Sketch 43 (38999) - http://www.bohemiancoding.com/sketch -->
    <title>Group 6</title>
    <desc>Created with Sketch.</desc>
    <defs></defs>
    <g id="Welcome" stroke="none" stroke-width="1" fill="none" fill-rule="evenodd">
        <g id="7.-left-option-(click-on-hamburger)" transform="translate(-36.000000, -204.000000)">
            <g id="list" transform="translate(20.000000, 28.000000)">
                <g id="row" transform="translate(0.000000, 168.000000)">
                    <g id="Group-6" transform="translate(16.000000, 8.000000)">
                        <circle id="avatar" fill="#E6D758" cx="20" cy="20" r="20"></circle>
                        <g id="Group-3" opacity="0.87426404" transform="translate(11.000000, 11.000000)">
                            <g id="Page-1" transform="translate(8.181818, 15.428571)">
                                <path d="M0.0691753846,7.9042282 L0.0691753846,3.6516748 L0.0691753846,7.9042282 Z" id="Fill-1" fill="#FFFFFF"></path>
                                <path d="M0.818181818,0 L0.818181818,4.25255339" id="Stroke-2" stroke="#FFFFFF" stroke-width="2" stroke-linecap="round"></path>
                            </g>
                            <g id="Page-1">
                                <path d="M11.318687,13.2136427 L11.5937087,13.5890449 C13.2272087,15.8190932 16.7032957,14.7248459 16.7948609,11.9269646 C16.7962957,11.8832488 16.797013,11.8393303 16.797013,11.795209 C16.797013,11.5891297 16.7809043,11.3832531 16.7489478,11.1796738 C17.5432304,10.3621809 17.9916652,9.25442014 17.9916652,8.08220053 C17.9916652,5.78485549 16.2716217,3.89595287 14.0955783,3.72548137 C13.3362522,1.50847347 11.3042739,-2.70267938e-05 8.99583913,-2.70267938e-05 C6.68740435,-2.70267938e-05 4.65542609,1.50847347 3.8961,3.72548137 C1.72005652,3.89595287 1.30434787e-05,5.78485549 1.30434787e-05,8.08220053 C1.30434787e-05,9.25435257 0.448513043,10.3621133 1.24273043,11.1796738 C1.21077391,11.3832531 1.19466522,11.5891297 1.19466522,11.795209 C1.19466522,12.1531789 1.2422087,12.4999327 1.3311,12.8289163 C1.94994783,15.1196398 4.80842609,15.7442966 6.30653478,13.9416094 L6.9114913,13.2136427" id="Stroke-1" stroke="#FFFFFF" stroke-width="2" stroke-linecap="round" stroke-linejoin="round"></path>
                                <path d="M12.6162848,11.1325526 L9.14587174,14.5977929 L5.66958913,11.1262689 C4.92363261,10.3536404 4.55071957,9.61999807 4.55071957,8.9257473 C4.55071957,8.59102046 4.59356739,8.29548247 4.67932826,8.03933603 C4.76508913,7.78312203 4.87478478,7.5795427 5.00841522,7.42866563 C5.14204565,7.27778855 5.30456739,7.15495177 5.49604565,7.05981746 C5.68758913,6.96481828 5.87508913,6.90069721 6.05854565,6.86765695 C6.24200217,6.83468426 6.43739348,6.81813035 6.64485,6.81813035 C6.8522413,6.81813035 7.07567609,6.87076503 7.31502391,6.97616953 C7.55430652,7.08157403 7.7747413,7.21380261 7.97613261,7.37292286 C8.17758913,7.53211068 8.35015435,7.68082561 8.49376304,7.81927036 C8.63737174,7.95778268 8.75698043,8.08474105 8.85271957,8.20048329 C8.92452391,8.29142845 9.02228478,8.33690103 9.14593696,8.33690103 C9.26958913,8.33690103 9.36728478,8.29142845 9.43908913,8.20048329 C9.53482826,8.08474105 9.65456739,7.95771511 9.79811087,7.81927036 C9.94171957,7.68082561 10.1142848,7.53217825 10.3156761,7.37292286 C10.5171326,7.21380261 10.7375022,7.08157403 10.9769152,6.97616953 C11.2161978,6.8708326 11.4396978,6.81813035 11.6470891,6.81813035 C11.8544804,6.81813035 12.0498717,6.83468426 12.2333935,6.86765695 C12.4169152,6.90069721 12.6044152,6.96481828 12.7958935,7.05981746 C12.9873717,7.15495177 13.1498935,7.27785612 13.2835239,7.42866563 C13.4171543,7.5795427 13.5269152,7.78312203 13.6126761,8.03933603 C13.6983065,8.29548247 13.7411543,8.59102046 13.7411543,8.9257473 C13.7411543,9.61999807 13.3662196,10.355735 12.6162848,11.1325526 M13.7471543,6.79340084 C13.2405457,6.28083769 12.5405674,6.02469125 11.6468935,6.02469125 C11.3995891,6.02469125 11.147263,6.06908276 10.8899804,6.15793335 C10.6326326,6.24678393 10.3932848,6.36671533 10.1720674,6.51752484 C9.95058913,6.66833435 9.76028478,6.80995475 9.60056739,6.94211577 C9.44111087,7.07441193 9.28948043,7.21495125 9.14587174,7.36366619 C9.00226304,7.21495125 8.85069783,7.07441193 8.69117609,6.94211577 C8.53152391,6.80995475 8.34115435,6.66840192 8.11967609,6.51752484 C7.89832826,6.36664776 7.65891522,6.24678393 7.40169783,6.15793335 C7.14441522,6.06915033 6.89208913,6.02469125 6.64478478,6.02469125 C5.7512413,6.02469125 5.05119783,6.28090526 4.54458913,6.79340084 C4.03804565,7.30582885 3.7847413,8.01663352 3.7847413,8.92581487 C3.7847413,9.20270437 3.83163261,9.48797218 3.92535,9.78121289 C4.01906739,10.0746563 4.12582826,10.3247217 4.24550217,10.5313416 C4.36511087,10.7378938 4.50076304,10.939311 4.65232826,11.1356607 C4.8039587,11.3319428 4.91469783,11.4672794 4.98441522,11.5416031 C5.05419783,11.6159944 5.10911087,11.6697777 5.1489587,11.7028855 L8.88258913,15.4347452 C8.9544587,15.5091364 9.04217609,15.5464334 9.14587174,15.5464334 C9.24956739,15.5464334 9.33741522,15.5091364 9.40915435,15.4347452 L13.13685,11.7151827 C14.05035,10.7689071 14.5070674,9.83905023 14.5070674,8.9257473 C14.5070674,8.01643082 14.2538283,7.30576128 13.7471543,6.79340084" id="Fill-3" fill="#FFFFFF"></path>
                                <path d="M12.6162848,11.1325526 L9.14587174,14.5977929 L5.66958913,11.1262689 C4.92363261,10.3536404 4.55071957,9.61999807 4.55071957,8.9257473 C4.55071957,8.59102046 4.59356739,8.29548247 4.67932826,8.03933603 C4.76508913,7.78312203 4.87478478,7.5795427 5.00841522,7.42866563 C5.14204565,7.27778855 5.30456739,7.15495177 5.49604565,7.05981746 C5.68758913,6.96481828 5.87508913,6.90069721 6.05854565,6.86765695 C6.24200217,6.83468426 6.43739348,6.81813035 6.64485,6.81813035 C6.8522413,6.81813035 7.07567609,6.87076503 7.31502391,6.97616953 C7.55430652,7.08157403 7.7747413,7.21380261 7.97613261,7.37292286 C8.17758913,7.53211068 8.35015435,7.68082561 8.49376304,7.81927036 C8.63737174,7.95778268 8.75698043,8.08474105 8.85271957,8.20048329 C8.92452391,8.29142845 9.02228478,8.33690103 9.14593696,8.33690103 C9.26958913,8.33690103 9.36728478,8.29142845 9.43908913,8.20048329 C9.53482826,8.08474105 9.65456739,7.95771511 9.79811087,7.81927036 C9.94171957,7.68082561 10.1142848,7.53217825 10.3156761,7.37292286 C10.5171326,7.21380261 10.7375022,7.08157403 10.9769152,6.97616953 C11.2161978,6.8708326 11.4396978,6.81813035 11.6470891,6.81813035 C11.8544804,6.81813035 12.0498717,6.83468426 12.2333935,6.86765695 C12.4169152,6.90069721 12.6044152,6.96481828 12.7958935,7.05981746 C12.9873717,7.15495177 13.1498935,7.27785612 13.2835239,7.42866563 C13.4171543,7.5795427 13.5269152,7.78312203 13.6126761,8.03933603 C13.6983065,8.29548247 13.7411543,8.59102046 13.7411543,8.9257473 C13.7411543,9.61999807 13.3662196,10.355735 12.6162848,11.1325526 Z M13.7471543,6.79340084 C13.2405457,6.28083769 12.5405674,6.02469125 11.6468935,6.02469125 C11.3995891,6.02469125 11.147263,6.06908276 10.8899804,6.15793335 C10.6326326,6.24678393 10.3932848,6.36671533 10.1720674,6.51752484 C9.95058913,6.66833435 9.76028478,6.80995475 9.60056739,6.94211577 C9.44111087,7.07441193 9.28948043,7.21495125 9.14587174,7.36366619 C9.00226304,7.21495125 8.85069783,7.07441193 8.69117609,6.94211577 C8.53152391,6.80995475 8.34115435,6.66840192 8.11967609,6.51752484 C7.89832826,6.36664776 7.65891522,6.24678393 7.40169783,6.15793335 C7.14441522,6.06915033 6.89208913,6.02469125 6.64478478,6.02469125 C5.7512413,6.02469125 5.05119783,6.28090526 4.54458913,6.79340084 C4.03804565,7.30582885 3.7847413,8.01663352 3.7847413,8.92581487 C3.7847413,9.20270437 3.83163261,9.48797218 3.92535,9.78121289 C4.01906739,10.0746563 4.12582826,10.3247217 4.24550217,10.5313416 C4.36511087,10.7378938 4.50076304,10.939311 4.65232826,11.1356607 C4.8039587,11.3319428 4.91469783,11.4672794 4.98441522,11.5416031 C5.05419783,11.6159944 5.10911087,11.6697777 5.1489587,11.7028855 L8.88258913,15.4347452 C8.9544587,15.5091364 9.04217609,15.5464334 9.14587174,15.5464334 C9.24956739,15.5464334 9.33741522,15.5091364 9.40915435,15.4347452 L13.13685,11.7151827 C14.05035,10.7689071 14.5070674,9.83905023 14.5070674,8.9257473 C14.5070674,8.01643082 14.2538283,7.30576128 13.7471543,6.79340084 Z" id="Stroke-5" stroke="#FFFFFF"></path>
                            </g>
                        </g>
                    </g>
                </g>
            </g>
        </g>
    </g>
</svg>