<?xml version="1.0" encoding="UTF-8"?>
<svg width="46px" height="46px" viewBox="0 0 46 46" version="1.1" xmlns="http://www.w3.org/2000/svg" xmlns:xlink="http://www.w3.org/1999/xlink">
    <!-- Generator: Sketch 43 (38999) - http://www.bohemiancoding.com/sketch -->
    <title>Group 17</title>
    <desc>Created with Sketch.</desc>
    <defs></defs>
    <g id="Welcome" stroke="none" stroke-width="1" fill="none" fill-rule="evenodd">
        <g id="22.-My-challenges---created" transform="translate(-25.000000, -149.000000)">
            <g id="Group-17" transform="translate(25.000000, 149.000000)">
                <ellipse id="Oval-2" fill="#009688" opacity="0.666836504" cx="23" cy="23" rx="19" ry="19"></ellipse>
                <ellipse id="Oval-2" fill="#009688" opacity="0.645606884" cx="23" cy="23" rx="23" ry="23"></ellipse>
                <g id="Group-7" transform="translate(9.000000, 9.000000)">
                    <g id="Group-6">
                        <g id="Group-15">
                            <circle id="Oval" fill="#F3F3F3" cx="14" cy="14" r="14"></circle>
                            <g id="chil-hand-on-the-hand-of-an-adult" transform="translate(7.840000, 5.600000)" fill-rule="nonzero" fill="#D79DC0">
                                <path d="M10.3668719,2.17255632 C9.91135458,2.17255632 9.54190644,2.53717958 9.54190644,2.98720402 L9.54190644,6.51763146 C9.54190644,6.66743967 9.41832678,6.78928067 9.26684203,6.78928067 C9.11539525,6.78928067 8.99185356,6.66743967 8.99185356,6.51763146 L8.99185356,1.35783364 C8.99185356,0.907771715 8.62225356,0.543110962 8.16677424,0.543110962 C7.71129492,0.543110962 7.34173288,0.907809205 7.34173288,1.35783364 L7.34173288,5.97455799 C7.34173288,6.1243287 7.21819119,6.24609473 7.06670644,6.24609473 C6.91522169,6.24609473 6.79164203,6.1243287 6.79164203,5.97455799 L6.79164203,0.814722678 C6.7915661,0.364660753 6.42234576,0 5.96660068,0 C5.51081763,0 5.14155932,0.364698243 5.14155932,0.814722678 L5.14155932,5.97459548 C5.14155932,6.12436619 5.01824542,6.24613222 4.86657085,6.24613222 C4.71478237,6.24613222 4.68995254,6.12436619 4.68995254,5.97459548 L4.68995254,1.90098209 C4.68995254,1.45088268 4.32065627,1.08625941 3.86487322,1.08625941 C3.40909017,1.08625941 3.0397939,1.45092017 3.0397939,1.90098209 C3.0397939,1.90098209 3.04742508,4.89249741 3.04742508,5.19867448 C3.04742508,5.50485155 3.14792136,5.62879197 3.19761898,5.69338644 C3.81794712,6.50023632 4.40338441,7.261199 4.48603661,7.36680703 C4.95522169,7.96626477 4.99880678,7.70132619 6.1668339,7.9769118 C6.16766915,7.97698678 6.16831458,7.97728669 6.16903593,7.97739916 C6.16914983,7.97751163 6.16930169,7.97751163 6.16945356,7.97758661 L6.16960542,7.97766159 C6.24409492,7.99453188 6.31698983,8.01545105 6.38840407,8.03985674 C6.96503322,8.23521473 8.28048271,8.71605556 8.28048271,8.71605556 C8.52893288,8.8033687 8.66253559,9.05664803 8.57946576,9.28278494 C8.49408,9.50700987 8.22554576,9.61895364 7.97500746,9.53227782 C7.97500746,9.53227782 7.44519051,9.38160736 7.39207593,9.36574929 C7.33896136,9.34977874 7.19488,9.32267381 7.32149695,9.48444117 C7.4481139,9.64617105 9.02146712,11.6561352 9.02146712,11.6561352 C9.1435661,11.8120167 9.11448407,12.0359418 8.95665898,12.1562082 C8.79890983,12.2767746 8.57213831,12.2480576 8.45019119,12.0922136 L7.34621288,10.682007 C7.30551322,10.6301215 7.26397831,10.594469 7.21139525,10.6344703 C7.1589261,10.6746591 7.14920678,10.7492633 7.18983051,10.8013362 L8.58823593,12.5877128 C8.71022102,12.7435568 8.68129085,12.9672944 8.52338983,13.0878233 C8.36560271,13.2082772 8.13902102,13.1795977 8.01703593,13.0238286 L6.61840271,11.2372271 C6.57785492,11.1854541 6.50215051,11.1758567 6.44964339,11.2158956 C6.39725017,11.2558969 6.38741695,11.330801 6.42800271,11.382649 L7.67932746,12.9810905 C7.80123661,13.1368971 7.77211661,13.3609721 7.61444339,13.4811635 C7.45669424,13.6016549 7.22992271,13.5729379 7.10805153,13.4171314 L5.7095322,11.6306798 C5.66898441,11.5787568 5.59320407,11.5693469 5.54081085,11.6094608 C5.48834169,11.6493496 5.47847051,11.7242162 5.51917017,11.7761018 L6.47591593,12.9983732 C6.59797695,13.1542172 6.56881898,13.3779923 6.41103186,13.4985962 C6.25347254,13.6187876 6.02662508,13.5903705 5.90456407,13.434564 C5.90456407,13.434564 4.15409898,11.1982005 3.91738034,10.8957724 C3.91301424,10.8902989 3.90842034,10.8843381 3.90382644,10.8781898 C3.11997831,9.86473506 3.57234441,9.38839297 3.05129763,8.6686313 L2.98326237,8.57895632 C2.82752542,8.37887464 2.57569627,8.04596753 2.28449627,7.65772586 L1.92613424,7.18524519 C1.59605695,6.68296033 0.952,6.51451983 0.480081356,6.80228954 C0.00979525424,7.09665741 -0.107026441,7.73874075 0.218760678,8.23945105 C0.218760678,8.23945105 1.91690847,10.9243769 2.68234305,12.0732064 C2.77718237,12.2158166 2.87942508,12.3543029 2.99002034,12.4878407 C2.99009627,12.4879156 2.99013424,12.4880281 2.99021017,12.4881031 C2.99036203,12.488328 2.99055186,12.488478 2.9906278,12.4886279 C2.99176678,12.4900151 2.99290576,12.4914022 2.99396881,12.4927143 C3.91233085,13.6575893 4.51895322,14.6885516 4.51895322,15.7047431 C4.51895322,16.0503217 4.5136,16.8231685 4.50403254,17.2938872 C4.49833763,17.5752837 4.43436475,17.9084157 4.94060475,17.9084157 L9.16752271,17.9084157 C9.59779254,17.9084157 9.58746576,17.5899796 9.59099661,17.4501811 C9.63458169,15.7241252 9.60223458,17.0138778 9.60223458,15.7047806 C9.60223458,13.5311746 11.1738793,13.3613469 11.1914956,10.370319 C11.1918373,10.3528114 11.1919892,10.3358286 11.1919892,10.3197456 L11.1919892,2.987279 C11.1919892,2.53717958 10.8223512,2.17255632 10.3668719,2.17255632 Z" id="Shape"></path>
                            </g>
                        </g>
                    </g>
                </g>
            </g>
        </g>
    </g>
</svg>