<?xml version="1.0" encoding="UTF-8"?>
<svg width="28px" height="28px" viewBox="0 0 28 28" version="1.1" xmlns="http://www.w3.org/2000/svg" xmlns:xlink="http://www.w3.org/1999/xlink">
    <!-- Generator: Sketch 43 (38999) - http://www.bohemiancoding.com/sketch -->
    <title>Group 7</title>
    <desc>Created with Sketch.</desc>
    <defs></defs>
    <g id="Welcome" stroke="none" stroke-width="1" fill="none" fill-rule="evenodd">
        <g id="22.-My-challenges---created" transform="translate(-34.000000, -243.000000)">
            <g id="Group-7" transform="translate(34.000000, 243.000000)">
                <g id="Group-11">
                    <circle id="Oval" fill="#F3F3F3" cx="14" cy="14" r="14"></circle>
                    <g id="ball" transform="translate(6.720000, 7.280000)" fill-rule="nonzero" fill="#F2D372">
                        <path d="M5.84689401,3.8592334 C5.2794462,3.8592334 4.81774222,4.32088835 4.81774222,4.88833616 C4.81774222,5.45578397 5.2794462,5.91748795 5.84689401,5.91748795 C6.41434182,5.91748795 6.87604579,5.45578397 6.87604579,4.88833616 C6.87604579,4.32088835 6.41434182,3.8592334 5.84689401,3.8592334 Z" id="Shape"></path>
                        <g id="Group-6">
                            <path d="M6.85717172,3.3506629 C7.2885301,3.6349996 7.59355475,4.09547798 7.66914909,4.62909953 C8.69271219,4.54227879 11.5159305,4.52869926 14.5157317,6.49096566 C14.2615445,4.1317064 12.8810408,2.11026855 10.9226963,0.975716094 C10.8407779,0.998266936 7.90882532,1.82029414 6.85717172,3.3506629 Z" id="Shape"></path>
                            <path d="M4.69572256,3.45331825 C4.23053791,3.11799704 3.39365657,2.55731448 2.28420418,1.98908229 C1.32299906,2.89817535 0.609755152,4.0666031 0.255559865,5.38239569 C1.70195125,4.4202101 3.31306182,4.39094303 4.06101441,4.44227071 C4.15984593,4.04660148 4.38707017,3.70147556 4.69572256,3.45331825 Z" id="Shape"></path>
                            <path d="M5.54280081,3.07309145 C5.64177939,3.05657051 5.74325818,3.04755017 5.84684498,3.04755017 C5.92523367,3.04755017 6.00220067,3.05299178 6.07804013,3.0626004 C6.88447785,1.72773764 8.75502114,0.875953131 9.85908094,0.470479192 C9.05788875,0.166680135 8.18938721,0 7.2818629,0 C5.66222222,0 4.16631704,0.529699663 2.95729778,1.42506613 C4.35319488,2.16841051 5.27032781,2.85880943 5.54280081,3.07309145 Z" id="Shape"></path>
                            <path d="M7.59894734,5.45245037 C7.45334734,5.90361428 7.13822384,6.27928189 6.72872997,6.50371178 C7.23578074,7.54340364 8.55539717,10.6033077 8.63986478,14.4328819 C11.9384646,13.8097923 14.4502853,10.9598071 14.5546564,7.50384162 C11.4328846,5.23253064 8.37499044,5.37195367 7.59894734,5.45245037 Z" id="Shape"></path>
                            <path d="M5.93214599,6.72706316 C5.90390842,6.72833778 5.87547475,6.7292202 5.84689401,6.7292202 C5.46284337,6.7292202 5.10604983,6.61082828 4.81068283,6.4089002 C4.4081503,6.87349657 2.74007434,8.94425212 1.9356466,12.161767 C1.9321169,12.1760329 1.92657724,12.1892692 1.92162586,12.2027507 C3.25158626,13.6516423 5.16066209,14.56 7.2818629,14.56 C7.46628956,14.56 7.64904943,14.5529406 7.83004444,14.5395081 C7.7638136,10.6686071 6.337767,7.54056027 5.93214599,6.72706316 Z" id="Shape"></path>
                            <path d="M4.29216054,5.8720431 C4.17440593,5.68663596 4.08851663,5.47907017 4.04312081,5.25689535 C3.31610128,5.20620498 1.41933037,5.22723609 0.0366696296,6.60528862 C0.0163248485,6.82751246 0.00529454545,7.05243259 0.00529454545,7.28 C0.00529454545,8.81801643 0.482440943,10.2444062 1.29618316,11.4197463 C2.22728781,8.20232943 3.92477791,6.26408458 4.29216054,5.8720431 Z" id="Shape"></path>
                        </g>
                    </g>
                </g>
                <g id="Material/Light/Checkbox-on" transform="translate(19.000000, 20.000000)" fill="#009688">
                    <path d="M4,8 C6.209139,8 8,6.209139 8,4 C8,1.790861 6.209139,0 4,0 C1.790861,0 0,1.790861 0,4 C0,6.209139 1.790861,8 4,8 Z M3.36842105,6.31578947 L1.26315789,4.29149798 L1.85263158,3.72469636 L3.36842105,5.18218623 L6.56842105,2.10526316 L7.15789474,2.67206478 L3.36842105,6.31578947 L3.36842105,6.31578947 Z" id="Shape"></path>
                </g>
            </g>
        </g>
    </g>
</svg>