<?xml version="1.0" encoding="UTF-8"?>
<svg width="28px" height="28px" viewBox="0 0 28 28" version="1.1" xmlns="http://www.w3.org/2000/svg" xmlns:xlink="http://www.w3.org/1999/xlink">
    <!-- Generator: Sketch 43 (38999) - http://www.bohemiancoding.com/sketch -->
    <title>Group 8</title>
    <desc>Created with Sketch.</desc>
    <defs></defs>
    <g id="Welcome" stroke="none" stroke-width="1" fill="none" fill-rule="evenodd">
        <g id="22.-My-challenges---created" transform="translate(-33.000000, -325.000000)">
            <g id="Group-8" transform="translate(33.000000, 325.000000)">
                <g id="Group-16">
                    <circle id="Oval" fill="#F3F3F3" cx="14" cy="14" r="14"></circle>
                    <path d="M19.2477432,4.48 C19.2477432,4.48 17.7068711,5.97542637 16.0403689,6.57764182 C3.69745039,11.0427446 8.90324729,19.7421526 9.07241963,19.7709428 C9.07241963,19.7709428 9.76481275,18.5655602 10.6999004,17.8776878 C16.6323531,13.5168009 17.8386875,8.49611801 17.8386875,8.49611801 C17.8386875,8.49611801 16.506961,14.5373074 11.2285937,18.2959789 C10.0631842,19.1258989 9.27395123,21.1688155 8.93941353,23.2107804 C8.93941353,23.2107804 9.76671623,22.8771944 10.1217164,22.7870167 C10.260195,21.8826229 10.5502388,21.0165366 11.0399106,20.2432453 C18.4159197,21.1214663 20.8323955,15.1778305 21.1476604,13.105172 C21.8928753,8.20988127 19.2477432,4.48 19.2477432,4.48" id="Page-1" fill="#2C9D5D"></path>
                </g>
                <g id="Group-5" transform="translate(20.000000, 20.000000)">
                    <circle id="Shape" fill="#EF5A2D" cx="4" cy="4" r="4"></circle>
                    <g id="Group-4" transform="translate(1.480000, 1.684211)" fill="#FFFFFF">
                        <polygon id="Shape" points="5.05263158 0.505263158 4.54736842 0 2.52631579 2.02105263 0.505263158 0 0 0.505263158 2.02105263 2.52631579 0 4.54736842 0.505263158 5.05263158 2.52631579 3.03157895 4.54736842 5.05263158 5.05263158 4.54736842 3.03157895 2.52631579"></polygon>
                    </g>
                </g>
            </g>
        </g>
    </g>
</svg>