<?xml version="1.0" encoding="UTF-8"?>
<svg width="24px" height="24px" viewBox="0 0 24 24" version="1.1" xmlns="http://www.w3.org/2000/svg" xmlns:xlink="http://www.w3.org/1999/xlink">
    <!-- Generator: Sketch 43 (38999) - http://www.bohemiancoding.com/sketch -->
    <title>clock</title>
    <desc>Created with Sketch.</desc>
    <defs></defs>
    <g id="Welcome" stroke="none" stroke-width="1" fill="none" fill-rule="evenodd">
        <g id="15.-DETAIL-OF-THE-CHALLENGE" transform="translate(-309.000000, -439.000000)" fill-rule="nonzero" fill="#000000">
            <g id="Group-9" transform="translate(270.000000, 439.000000)">
                <g id="clock" transform="translate(39.000000, 0.000000)">
                    <path d="M23.0420392,7.32866667 C21.7767059,4.37866667 19.6265098,2.23321569 16.6518824,0.96454902 C15.1651373,0.330470588 13.6075294,0.00658823529 11.9802745,0.00658823529 C10.3532941,0.00658823529 8.80717647,0.327411765 7.32207843,0.96454902 C4.37207843,2.22984314 2.21235294,4.37392157 0.944784314,7.32866667 C0.309607843,8.80898039 0,10.3598431 0,11.9868235 C0,13.6141176 0.309607843,15.1778431 0.944784314,16.6584706 C2.21235294,19.6132157 4.37235294,21.7701569 7.32207843,23.0357647 C8.80745098,23.672902 10.3532549,23.9934118 11.9802745,23.9934118 C13.6072941,23.9934118 15.1651373,23.6695294 16.6516471,23.0357647 C19.6262745,21.7670588 21.7764706,19.6081961 23.0420784,16.6584706 C23.6791765,15.173098 24,13.6141176 24,11.9868235 C24,10.3598431 23.679451,8.814 23.0420392,7.32866667 Z M21.1264314,17.2883529 C20.1844314,18.9038431 18.8939216,20.185451 17.2685882,21.1330196 C15.653098,22.0750196 13.8830196,22.5500784 11.980549,22.5500784 C10.5503529,22.5500784 9.18564706,22.2746275 7.88643137,21.7102745 C6.5872549,21.1461961 5.46552941,20.4046275 4.52717647,19.466549 C3.58882353,18.5281961 2.84196078,17.3955294 2.2834902,16.0941176 C1.72666667,14.797451 1.45682353,13.4173333 1.45682353,11.9868627 C1.45682353,10.0841176 1.92431373,8.32301961 2.86101961,6.712 C3.80105882,5.09509804 5.09184314,3.81211765 6.70568627,2.86729412 C8.3192549,1.9225098 10.0778431,1.44996078 11.9802745,1.44996078 C13.8830196,1.44996078 15.6527843,1.92529412 17.2683137,2.86729412 C18.8936471,3.81490196 20.1813725,5.09784314 21.1261569,6.71196078 C22.0709412,8.32580392 22.5432157,10.0841176 22.5432157,11.9868235 C22.5432157,13.8896078 22.0740392,15.6627059 21.1264314,17.2883529 Z" id="Shape"></path>
                    <path d="M12.7414118,11.8818824 L12.7414118,5.08466667 C12.7414118,4.67792157 12.3870196,4.34984314 11.9802353,4.34984314 C11.5998039,4.34984314 11.258549,4.67792157 11.258549,5.08466667 L11.258549,11.9868235 C11.258549,12 11.2848627,12.0526275 11.2848627,12.0918431 C11.258549,12.3280784 11.3243529,12.524902 11.4816863,12.6825098 L15.4053333,16.6058824 C15.6678824,16.8684314 16.1532941,16.8684314 16.4156471,16.6058824 C16.7173725,16.3041176 16.6975294,15.8662745 16.4156471,15.5823922 L12.7414118,11.8818824 Z" id="Shape"></path>
                </g>
            </g>
        </g>
    </g>
</svg>