<?xml version="1.0" encoding="UTF-8"?>
<svg width="33px" height="33px" viewBox="0 0 33 33" version="1.1" xmlns="http://www.w3.org/2000/svg" xmlns:xlink="http://www.w3.org/1999/xlink">
    <!-- Generator: Sketch 43 (38999) - http://www.bohemiancoding.com/sketch -->
    <title>Group 11</title>
    <desc>Created with Sketch.</desc>
    <defs>
        <circle id="path-1" cx="12.5" cy="12.5" r="12.5"></circle>
        <filter x="-26.0%" y="-22.0%" width="152.0%" height="152.0%" filterUnits="objectBoundingBox" id="filter-2">
            <feOffset dx="0" dy="1" in="SourceAlpha" result="shadowOffsetOuter1"></feOffset>
            <feGaussianBlur stdDeviation="2" in="shadowOffsetOuter1" result="shadowBlurOuter1"></feGaussianBlur>
            <feColorMatrix values="0 0 0 0 0   0 0 0 0 0   0 0 0 0 0  0 0 0 0.316689312 0" type="matrix" in="shadowBlurOuter1"></feColorMatrix>
        </filter>
    </defs>
    <g id="Welcome" stroke="none" stroke-width="1" fill="none" fill-rule="evenodd">
        <g id="2.-Map" transform="translate(-56.000000, -106.000000)">
            <g id="Group-11" transform="translate(60.000000, 109.000000)">
                <g id="Oval">
                    <use fill="black" fill-opacity="1" filter="url(#filter-2)" xlink:href="#path-1"></use>
                    <use fill="#F3F3F3" fill-rule="evenodd" xlink:href="#path-1"></use>
                </g>
                <g id="ball" transform="translate(6.000000, 6.500000)" fill-rule="nonzero" fill="#F2D372">
                    <path d="M5.22044108,3.44574411 C4.71379125,3.44574411 4.30155556,3.85793603 4.30155556,4.36458586 C4.30155556,4.87123569 4.71379125,5.28347138 5.22044108,5.28347138 C5.72709091,5.28347138 6.1393266,4.87123569 6.1393266,4.36458586 C6.1393266,3.85793603 5.72709091,3.44574411 5.22044108,3.44574411 Z" id="Shape"></path>
                    <g id="Group-6">
                        <path d="M6.12247475,2.9916633 C6.50761616,3.24553535 6.7799596,3.65667677 6.84745455,4.13312458 C7.76135017,4.05560606 10.2820808,4.04348148 12.9604747,5.79550505 C12.7335219,3.68902357 11.5009293,1.88416835 9.75240741,0.871175084 C9.67926599,0.891309764 7.06145118,1.62526263 6.12247475,2.9916633 Z" id="Shape"></path>
                        <path d="M4.19260943,3.08331987 C3.77726599,2.78392593 3.03005051,2.2833165 2.03946801,1.77596633 C1.18124916,2.58765657 0.544424242,3.63089562 0.228178451,4.80571044 C1.51959933,3.94661616 2.95809091,3.92048485 3.62590572,3.96631313 C3.71414815,3.61303704 3.91702694,3.30488889 4.19260943,3.08331987 Z" id="Shape"></path>
                        <path d="M4.94892929,2.74383165 C5.03730303,2.72908081 5.12790909,2.72102694 5.22039731,2.72102694 C5.29038721,2.72102694 5.35910774,2.72588552 5.42682155,2.73446465 C6.14685522,1.5426229 7.81698316,0.78210101 8.80275084,0.420070707 C8.08740067,0.148821549 7.31195286,0 6.5016633,0 C5.05555556,0 3.71992593,0.472946128 2.64044444,1.27238047 C3.88678114,1.93608081 4.70564983,2.55250842 4.94892929,2.74383165 Z" id="Shape"></path>
                        <path d="M6.78477441,4.86825926 C6.65477441,5.27108418 6.37341414,5.60650168 6.00779461,5.80688552 C6.46051852,6.73518182 7.63874747,9.46723906 7.71416498,12.8865017 C10.6593434,12.3301717 12.9020404,9.78554209 12.995229,6.69985859 C10.2079327,4.67190236 7.47767003,4.79638721 6.78477441,4.86825926 Z" id="Shape"></path>
                        <path d="M5.29655892,6.0063064 C5.2713468,6.00744444 5.2459596,6.00823232 5.22044108,6.00823232 C4.87753872,6.00823232 4.55897306,5.90252525 4.29525253,5.72223232 C3.93584848,6.13705051 2.44649495,7.98593939 1.72825589,10.8587205 C1.72510438,10.8714579 1.72015825,10.8832761 1.71573737,10.8953131 C2.90320202,12.1889663 4.60773401,13 6.5016633,13 C6.66632997,13 6.82950842,12.993697 6.99111111,12.9817037 C6.93197643,9.52554209 5.65872054,6.7326431 5.29655892,6.0063064 Z" id="Shape"></path>
                        <path d="M3.8322862,5.24289562 C3.72714815,5.07735354 3.65046128,4.89202694 3.60992929,4.69365657 C2.96080471,4.64839731 1.26725926,4.66717508 0.0327407407,5.89757912 C0.0145757576,6.09599327 0.00472727273,6.29681481 0.00472727273,6.5 C0.00472727273,7.87322896 0.430750842,9.14679125 1.1573064,10.196202 C1.98864983,7.32350842 3.50426599,5.59293266 3.8322862,5.24289562 Z" id="Shape"></path>
                    </g>
                </g>
            </g>
        </g>
    </g>
</svg>