<?xml version="1.0" encoding="UTF-8"?>
<svg width="33px" height="33px" viewBox="0 0 33 33" version="1.1" xmlns="http://www.w3.org/2000/svg" xmlns:xlink="http://www.w3.org/1999/xlink">
    <!-- Generator: Sketch 43 (38999) - http://www.bohemiancoding.com/sketch -->
    <title>Group 15</title>
    <desc>Created with Sketch.</desc>
    <defs>
        <circle id="path-1" cx="12.5" cy="12.5" r="12.5"></circle>
        <filter x="-26.0%" y="-22.0%" width="152.0%" height="152.0%" filterUnits="objectBoundingBox" id="filter-2">
            <feOffset dx="0" dy="1" in="SourceAlpha" result="shadowOffsetOuter1"></feOffset>
            <feGaussianBlur stdDeviation="2" in="shadowOffsetOuter1" result="shadowBlurOuter1"></feGaussianBlur>
            <feColorMatrix values="0 0 0 0 0   0 0 0 0 0   0 0 0 0 0  0 0 0 0.32 0" type="matrix" in="shadowBlurOuter1"></feColorMatrix>
        </filter>
    </defs>
    <g id="Welcome" stroke="none" stroke-width="1" fill="none" fill-rule="evenodd">
        <g id="2.-Map" transform="translate(-176.000000, -346.000000)">
            <g id="Group-15" transform="translate(180.000000, 349.000000)">
                <g id="Oval">
                    <use fill="black" fill-opacity="1" filter="url(#filter-2)" xlink:href="#path-1"></use>
                    <use fill="#F3F3F3" fill-rule="evenodd" xlink:href="#path-1"></use>
                </g>
                <g id="chil-hand-on-the-hand-of-an-adult" transform="translate(7.000000, 5.000000)" fill-rule="nonzero" fill="#D79DC0">
                    <path d="M9.25613559,1.93978243 C8.84942373,1.93978243 8.51955932,2.26533891 8.51955932,2.66714644 L8.51955932,5.81931381 C8.51955932,5.95307113 8.40922034,6.06185774 8.2739661,6.06185774 C8.13874576,6.06185774 8.02844068,5.95307113 8.02844068,5.81931381 L8.02844068,1.21235146 C8.02844068,0.81051046 7.69844068,0.484920502 7.29176271,0.484920502 C6.88508475,0.484920502 6.55511864,0.810543933 6.55511864,1.21235146 L6.55511864,5.33442678 C6.55511864,5.46815063 6.44481356,5.57687029 6.30955932,5.57687029 C6.17430508,5.57687029 6.0639661,5.46815063 6.0639661,5.33442678 L6.0639661,0.727430962 C6.06389831,0.325589958 5.73423729,0 5.32732203,0 C4.92037288,0 4.59067797,0.325623431 4.59067797,0.727430962 L4.59067797,5.33446025 C4.59067797,5.4681841 4.48057627,5.57690377 4.34515254,5.57690377 C4.20962712,5.57690377 4.18745763,5.4681841 4.18745763,5.33446025 L4.18745763,1.69730544 C4.18745763,1.29543096 3.85772881,0.969874477 3.45077966,0.969874477 C3.04383051,0.969874477 2.71410169,1.29546444 2.71410169,1.69730544 C2.71410169,1.69730544 2.72091525,4.36830126 2.72091525,4.64167364 C2.72091525,4.91504603 2.81064407,5.02570711 2.85501695,5.08338075 C3.40888136,5.80378243 3.93159322,6.48321339 4.00538983,6.57750628 C4.42430508,7.1127364 4.46322034,6.8761841 5.50610169,7.12224268 C5.50684746,7.12230962 5.50742373,7.12257741 5.5080678,7.12267782 C5.50816949,7.12277824 5.50830508,7.12277824 5.50844068,7.12284519 L5.50857627,7.12291213 C5.57508475,7.1379749 5.64016949,7.15665272 5.7039322,7.17844351 C6.21877966,7.35287029 7.39328814,7.78219247 7.39328814,7.78219247 C7.61511864,7.86015063 7.73440678,8.08629289 7.66023729,8.28820084 C7.584,8.48840167 7.34423729,8.58835146 7.12054237,8.51096234 C7.12054237,8.51096234 6.64749153,8.37643515 6.6000678,8.36227615 C6.55264407,8.34801674 6.424,8.3238159 6.53705085,8.46825105 C6.65010169,8.61265272 8.05488136,10.4072636 8.05488136,10.4072636 C8.16389831,10.5464435 8.1379322,10.7463766 7.99701695,10.8537573 C7.85616949,10.9614059 7.65369492,10.9357657 7.54481356,10.7966192 L6.55911864,9.53750628 C6.52277966,9.49117992 6.48569492,9.45934728 6.43874576,9.49506276 C6.39189831,9.53094561 6.38322034,9.59755649 6.41949153,9.64405021 L7.6680678,11.2390293 C7.77698305,11.3781757 7.75115254,11.5779414 7.61016949,11.6855565 C7.46928814,11.7931046 7.26698305,11.7674979 7.1580678,11.6284184 L5.90928814,10.0332385 C5.87308475,9.98701255 5.80549153,9.97844351 5.75861017,10.0141925 C5.71183051,10.0499079 5.70305085,10.1167866 5.73928814,10.1630795 L6.85654237,11.5902594 C6.96538983,11.7293724 6.93938983,11.9294393 6.79861017,12.0367531 C6.65776271,12.1443347 6.45528814,12.1186946 6.34647458,11.9795816 L5.09779661,10.3845356 C5.06159322,10.3381757 4.9939322,10.3297741 4.94715254,10.36559 C4.90030508,10.401205 4.89149153,10.4680502 4.92783051,10.5143766 L5.7820678,11.6056904 C5.89105085,11.7448368 5.86501695,11.944636 5.72413559,12.052318 C5.58345763,12.1596318 5.38091525,12.1342594 5.2719322,11.9951464 C5.2719322,11.9951464 3.70901695,9.99839331 3.49766102,9.7283682 C3.49376271,9.72348117 3.48966102,9.718159 3.48555932,9.71266946 C2.78569492,8.80779916 3.18959322,8.38249372 2.72437288,7.73984937 L2.66362712,7.65978243 C2.52457627,7.48113808 2.29972881,7.18389958 2.03972881,6.83725523 L1.71976271,6.41539749 C1.42505085,5.96692887 0.85,5.81653556 0.428644068,6.0734728 C0.00874576271,6.33630126 -0.095559322,6.90958996 0.195322034,7.35665272 C0.195322034,7.35665272 1.71152542,9.75390795 2.39494915,10.7796485 C2.47962712,10.9069791 2.57091525,11.0306276 2.66966102,11.1498577 C2.66972881,11.1499247 2.66976271,11.1500251 2.66983051,11.1500921 C2.6699661,11.1502929 2.67013559,11.1504268 2.67020339,11.1505607 C2.67122034,11.1517992 2.67223729,11.1530377 2.67318644,11.1542092 C3.49315254,12.1942762 4.03477966,13.1147782 4.03477966,14.0220921 C4.03477966,14.3306444 4.03,15.0206862 4.02145763,15.4409707 C4.01637288,15.6922176 3.95925424,15.9896569 4.41125424,15.9896569 L8.18528814,15.9896569 C8.56945763,15.9896569 8.56023729,15.7053389 8.56338983,15.5805188 C8.60230508,14.0393975 8.57342373,15.1909623 8.57342373,14.0221255 C8.57342373,12.0814059 9.97667797,11.9297741 9.99240678,9.25921339 C9.99271186,9.24358159 9.99284746,9.22841841 9.99284746,9.21405858 L9.99284746,2.66721339 C9.99284746,2.26533891 9.66281356,1.93978243 9.25613559,1.93978243 Z" id="Shape"></path>
                </g>
            </g>
        </g>
    </g>
</svg>