<?xml version="1.0" encoding="UTF-8"?>
<svg width="25px" height="35px" viewBox="0 0 25 35" version="1.1" xmlns="http://www.w3.org/2000/svg" xmlns:xlink="http://www.w3.org/1999/xlink">
    <!-- Generator: Sketch 43 (38999) - http://www.bohemiancoding.com/sketch -->
    <title>medal</title>
    <desc>Created with Sketch.</desc>
    <defs></defs>
    <g id="Welcome" stroke="none" stroke-width="1" fill="none" fill-rule="evenodd" opacity="0.870471014">
        <g id="19.-Profile" transform="translate(-286.000000, -358.000000)">
            <g id="medal" transform="translate(286.000000, 358.000000)">
                <g id="Group-5">
                    <path d="M24.9857143,12.2908163 C24.9857143,5.51403061 19.3785714,0 12.4928571,0 C5.60714286,0 1.77635684e-15,5.51403061 1.77635684e-15,12.2908163 C1.77635684e-15,15.2582908 1.07857143,17.9872449 2.86428571,20.1128827 L2.86428571,32.9368622 C3.01428571,34.5994898 4.75,34.5082908 5.1,34.1505102 L12.4928571,29.6116071 L19.8857143,34.1575255 C21.4142857,34.8590561 22.1714286,33.5682398 22.1214286,32.9438776 C22.1214286,32.9438776 22.1214286,20.1760204 22.1142857,20.1269133 C23.9071429,18.0012755 24.9857143,15.2653061 24.9857143,12.2908163 Z M12.4928571,2.8622449 C17.7714286,2.8622449 22.0642857,7.09247449 22.0642857,12.2908163 C22.0642857,17.4891582 17.7714286,21.7193878 12.4928571,21.7193878 C7.21428571,21.7193878 2.91428571,17.4891582 2.91428571,12.2908163 C2.91428571,7.09247449 7.21428571,2.8622449 12.4928571,2.8622449 Z M13.2642857,26.7072704 C12.7928571,26.4196429 12.1928571,26.4126276 11.7142857,26.7072704 L5.77857143,30.3552296 L5.77857143,22.6594388 C7.72142857,23.880102 10.0214286,24.588648 12.4928571,24.588648 C14.9642857,24.588648 17.2642857,23.880102 19.2071429,22.6594388 L19.2071429,30.3622449 L13.2642857,26.7072704 Z" id="Shape" fill="#2B9659" fill-rule="nonzero"></path>
                    <text id="5" font-family="Roboto-Medium, Roboto" font-size="13" font-weight="400" fill="#2B9759">
                        <tspan x="8.59375" y="16.2999878">5</tspan>
                    </text>
                </g>
            </g>
        </g>
    </g>
</svg>