<?xml version="1.0" encoding="UTF-8"?>
<svg width="168px" height="150px" viewBox="0 0 168 150" version="1.1" xmlns="http://www.w3.org/2000/svg" xmlns:xlink="http://www.w3.org/1999/xlink">
    <!-- Generator: Sketch 43 (38999) - http://www.bohemiancoding.com/sketch -->
    <title>Group 2</title>
    <desc>Created with Sketch.</desc>
    <defs>
        <path d="M45.5588062,38.5160727 L33.0267591,50.5050078 L20.4735163,38.4943325 C17.7797844,35.8212156 16.433154,33.2829818 16.433154,30.8810338 C16.433154,29.7229558 16.5878822,28.7004623 16.8975743,27.8142545 C17.2072663,26.927813 17.6033895,26.2234753 18.0859438,25.7014753 C18.5684982,25.1794753 19.1553822,24.7544883 19.8468315,24.4253455 C20.5385163,24.0966701 21.2155996,23.874826 21.8780815,23.7605143 C22.5405634,23.6464364 23.2461431,23.5891636 23.9952917,23.5891636 C24.7442047,23.5891636 25.5510525,23.7712675 26.4153641,24.1359429 C27.2794402,24.5006182 28.0754547,24.9580987 28.8027011,25.5086182 C29.530183,26.0593714 30.1533351,26.5738909 30.6719221,27.0528779 C31.1905091,27.5320987 31.6224293,27.9713455 31.968154,28.371787 C32.2274475,28.6864364 32.5804728,28.843761 33.0269946,28.843761 C33.4735163,28.843761 33.8263062,28.6864364 34.0855996,28.371787 C34.4313243,27.9713455 34.8637156,27.5318649 35.382067,27.0528779 C35.900654,26.5738909 36.5238062,26.0596052 37.2510525,25.5086182 C37.9785344,24.9580987 38.7743134,24.5006182 39.6388605,24.1359429 C40.5029366,23.7715013 41.3100199,23.5891636 42.058933,23.5891636 C42.807846,23.5891636 43.5134257,23.6464364 44.1761431,23.7605143 C44.8388605,23.874826 45.5159438,24.0966701 46.2073931,24.4253455 C46.8988424,24.7544883 47.4857264,25.1797091 47.9682808,25.7014753 C48.4508351,26.2234753 48.8471938,26.927813 49.1568859,27.8142545 C49.4661069,28.7004623 49.6208351,29.7229558 49.6208351,30.8810338 C49.6208351,33.2829818 48.266904,35.8284623 45.5588062,38.5160727 Z M49.6425018,23.5036052 C47.8130815,21.7302545 45.2853822,20.8440468 42.0582264,20.8440468 C41.165183,20.8440468 40.2540054,20.9976312 39.3249293,21.3050338 C38.3956178,21.6124364 37.5313062,22.0273714 36.7324656,22.5491377 C35.932683,23.0709039 35.2454728,23.5608779 34.6687156,24.0181247 C34.0929004,24.475839 33.545346,24.9620727 33.0267591,25.4765922 C32.5081721,24.9620727 31.9608533,24.475839 31.3848025,24.0181247 C30.8082808,23.5608779 30.1208351,23.0711377 29.3210525,22.5491377 C28.5217409,22.0271377 27.6571938,21.6124364 26.7283533,21.3050338 C25.7992772,20.9978649 24.8880996,20.8440468 23.9950562,20.8440468 C20.7683714,20.8440468 18.2404366,21.7304883 16.4110163,23.5036052 C14.5818315,25.2764883 13.6671214,27.7357091 13.6671214,30.8812675 C13.6671214,31.8392416 13.8364511,32.8262026 14.174875,33.8407481 C14.5132989,34.8559948 14.8988243,35.7211636 15.3309801,36.4360208 C15.7629004,37.1506442 16.2527554,37.8475013 16.8000743,38.526826 C17.3476286,39.2059169 17.7475199,39.6741506 17.9992772,39.9312935 C18.2512699,40.1886701 18.449567,40.3747481 18.593462,40.4892935 L32.0760163,53.4006701 C32.3355453,53.6580468 32.6523025,53.7870857 33.0267591,53.7870857 C33.4012156,53.7870857 33.7184438,53.6580468 33.9775018,53.4006701 L47.438625,40.531839 C50.737375,37.2579429 52.3866322,34.0408519 52.3866322,30.8810338 C52.3866322,27.7350078 51.4721576,25.2762545 49.6425018,23.5036052 Z" id="path-1"></path>
    </defs>
    <g id="Welcome" stroke="none" stroke-width="1" fill="none" fill-rule="evenodd">
        <g id="18.-About" transform="translate(-97.000000, -120.000000)">
            <g id="Group-2" transform="translate(95.000000, 123.000000)">
                <g id="Group" transform="translate(0.000000, 75.000000)" font-size="47" font-family="Bariol-Bold, Bariol" fill="#00BBD3" font-weight="bold">
                    <text id="BOUNTY">
                        <tspan x="0" y="37">BOUNTY</tspan>
                    </text>
                    <text id="LAND">
                        <tspan x="27" y="71">LAND</tspan>
                    </text>
                </g>
                <g id="Group-3" transform="translate(50.000000, 0.000000)">
                    <g id="Page-1" transform="translate(32.000000, 53.000000)">
                        <path d="M0.2498,32.816175 L0.2498,15.1607464 L0.2498,32.816175 Z" id="Fill-1" fill="#FFFFFF"></path>
                        <path d="M1.5,0 L1.5,17.6554286" id="Stroke-2" stroke="#00BBD3" stroke-width="5.5" stroke-linecap="round"></path>
                    </g>
                    <g id="Page-1">
                        <path d="M40.8730362,45.7161662 L41.8661703,47.0149714 C47.7649203,54.730426 60.3174565,50.9445818 60.6481087,41.2645558 C60.6532899,41.1133091 60.6558804,40.961361 60.6558804,40.8087117 C60.6558804,40.0957247 60.5977101,39.383439 60.4823116,38.6791013 C63.3505543,35.8507636 64.9699022,32.0181662 64.9699022,27.9625558 C64.9699022,20.0142701 58.7586341,13.4791013 50.9006993,12.8893091 C48.1586884,5.21897143 40.8209891,-9.35064936e-05 32.4849746,-9.35064936e-05 C24.1489601,-9.35064936e-05 16.8112609,5.21897143 14.06925,12.8893091 C6.21131522,13.4791013 4.71014491e-05,20.0142701 4.71014491e-05,27.9625558 C4.71014491e-05,32.0179325 1.61963043,35.8505299 4.48763768,38.6791013 C4.37223913,39.383439 4.31406884,40.0957247 4.31406884,40.8087117 C4.31406884,42.0472052 4.48575362,43.2468935 4.80675,44.3851013 C7.04147826,52.3104779 17.3637609,54.4716468 22.7735978,48.2347636 L24.958163,45.7161662" id="Stroke-1" stroke="#00BBD3" stroke-width="5" stroke-linecap="round" stroke-linejoin="round"></path>
                        <path d="M45.5588062,38.5160727 L33.0267591,50.5050078 L20.4735163,38.4943325 C17.7797844,35.8212156 16.433154,33.2829818 16.433154,30.8810338 C16.433154,29.7229558 16.5878822,28.7004623 16.8975743,27.8142545 C17.2072663,26.927813 17.6033895,26.2234753 18.0859438,25.7014753 C18.5684982,25.1794753 19.1553822,24.7544883 19.8468315,24.4253455 C20.5385163,24.0966701 21.2155996,23.874826 21.8780815,23.7605143 C22.5405634,23.6464364 23.2461431,23.5891636 23.9952917,23.5891636 C24.7442047,23.5891636 25.5510525,23.7712675 26.4153641,24.1359429 C27.2794402,24.5006182 28.0754547,24.9580987 28.8027011,25.5086182 C29.530183,26.0593714 30.1533351,26.5738909 30.6719221,27.0528779 C31.1905091,27.5320987 31.6224293,27.9713455 31.968154,28.371787 C32.2274475,28.6864364 32.5804728,28.843761 33.0269946,28.843761 C33.4735163,28.843761 33.8263062,28.6864364 34.0855996,28.371787 C34.4313243,27.9713455 34.8637156,27.5318649 35.382067,27.0528779 C35.900654,26.5738909 36.5238062,26.0596052 37.2510525,25.5086182 C37.9785344,24.9580987 38.7743134,24.5006182 39.6388605,24.1359429 C40.5029366,23.7715013 41.3100199,23.5891636 42.058933,23.5891636 C42.807846,23.5891636 43.5134257,23.6464364 44.1761431,23.7605143 C44.8388605,23.874826 45.5159438,24.0966701 46.2073931,24.4253455 C46.8988424,24.7544883 47.4857264,25.1797091 47.9682808,25.7014753 C48.4508351,26.2234753 48.8471938,26.927813 49.1568859,27.8142545 C49.4661069,28.7004623 49.6208351,29.7229558 49.6208351,30.8810338 C49.6208351,33.2829818 48.266904,35.8284623 45.5588062,38.5160727 M49.6425018,23.5036052 C47.8130815,21.7302545 45.2853822,20.8440468 42.0582264,20.8440468 C41.165183,20.8440468 40.2540054,20.9976312 39.3249293,21.3050338 C38.3956178,21.6124364 37.5313062,22.0273714 36.7324656,22.5491377 C35.932683,23.0709039 35.2454728,23.5608779 34.6687156,24.0181247 C34.0929004,24.475839 33.545346,24.9620727 33.0267591,25.4765922 C32.5081721,24.9620727 31.9608533,24.475839 31.3848025,24.0181247 C30.8082808,23.5608779 30.1208351,23.0711377 29.3210525,22.5491377 C28.5217409,22.0271377 27.6571938,21.6124364 26.7283533,21.3050338 C25.7992772,20.9978649 24.8880996,20.8440468 23.9950562,20.8440468 C20.7683714,20.8440468 18.2404366,21.7304883 16.4110163,23.5036052 C14.5818315,25.2764883 13.6671214,27.7357091 13.6671214,30.8812675 C13.6671214,31.8392416 13.8364511,32.8262026 14.174875,33.8407481 C14.5132989,34.8559948 14.8988243,35.7211636 15.3309801,36.4360208 C15.7629004,37.1506442 16.2527554,37.8475013 16.8000743,38.526826 C17.3476286,39.2059169 17.7475199,39.6741506 17.9992772,39.9312935 C18.2512699,40.1886701 18.449567,40.3747481 18.593462,40.4892935 L32.0760163,53.4006701 C32.3355453,53.6580468 32.6523025,53.7870857 33.0267591,53.7870857 C33.4012156,53.7870857 33.7184438,53.6580468 33.9775018,53.4006701 L47.438625,40.531839 C50.737375,37.2579429 52.3866322,34.0408519 52.3866322,30.8810338 C52.3866322,27.7350078 51.4721576,25.2762545 49.6425018,23.5036052" id="Fill-3" fill="#FFFFFF"></path>
                        <g id="Stroke-5" stroke="#00BBD3">
                            <path stroke-width="3" d="M33.0264866,27.3040337 C32.6425235,26.8686021 32.2034998,26.4258001 31.6899444,25.9512289 C31.1336901,25.4374508 30.4739841,24.8925128 29.7081017,24.3126877 C28.8812318,23.686754 27.9770105,23.1669038 26.9986093,22.7539787 C25.9592419,22.3154428 24.9574562,22.0891636 23.9952917,22.0891636 C23.1637183,22.0891636 22.3730912,22.1531981 21.6235312,22.2822707 C20.8216827,22.4206301 20.0148054,22.6847919 19.2030465,23.0705241 C18.3412116,23.4807733 17.5988449,24.0186674 16.9844838,24.6832486 C16.3511199,25.3683858 15.8550144,26.2504265 15.4815068,27.3195295 C15.1130794,28.373813 14.933154,29.5621614 14.933154,30.8810338 C14.933154,33.7428667 16.4651726,36.6298832 19.4169381,39.559059 L31.9897797,51.5888315 L33.0266959,52.5809308 L34.0636725,51.5888946 L46.5957196,39.5999595 L46.6154314,39.5807525 C49.5814604,36.6371622 51.1208351,33.7435601 51.1208351,30.8810338 C51.1208351,29.5627395 50.9410652,28.3745144 50.573147,27.3200841 C50.1995282,26.2506626 49.7032011,25.36849 49.0697409,24.6832486 C48.4550172,24.018573 47.7126334,23.4805926 46.8521039,23.0709644 C46.0397411,22.6848135 45.2327656,22.4206195 44.4311119,22.2823428 C43.6808541,22.1531959 42.8902543,22.0891636 42.058933,22.0891636 C41.0970623,22.0891636 40.0951829,22.31552 39.0559327,22.7538448 C38.0774741,23.1665692 37.1733767,23.6863097 36.3458962,24.3125028 C35.5781252,24.8941923 34.9191058,25.4385529 34.3643127,25.9509814 C33.8417167,26.4338905 33.3964997,26.8835447 33.0264866,27.3040337 Z M32.9409634,52.3164247 C32.941009,52.3163737 32.9410673,52.3163181 32.9411379,52.3162579 L32.9409634,52.3164247 Z M33.1306759,52.3340945 C33.13122,52.3345985 33.1317453,52.3351013 33.1322508,52.3356027 L33.1306759,52.3340945 L33.1306759,52.3340945 Z M33.0266696,52.2344919 L19.630926,39.4059338 L19.5276647,39.3157241 C19.4414014,39.2470554 19.2828424,39.0981811 19.0710883,38.8819028 C18.8617806,38.6681176 18.4863839,38.22849 17.9677775,37.5853011 C17.4619164,36.957433 17.010909,36.3156316 16.6147193,35.6601254 C16.2437352,35.0464564 15.9029159,34.2814317 15.5978964,33.3663959 C15.3090776,32.500559 15.1671214,31.6731544 15.1671214,30.8812675 C15.1671214,28.1205165 15.9361773,26.0527575 17.4549704,24.5807123 C18.9841725,23.098574 21.1358251,22.3440468 23.9950562,22.3440468 C24.7238402,22.3440468 25.4765762,22.4710297 26.2574941,22.7292148 C27.0640134,22.9961349 27.8111555,23.3546176 28.5008685,23.805043 C29.2617822,24.3016742 29.912901,24.7652414 30.4527037,25.1933659 C30.9843566,25.6158036 31.4905306,26.0654305 31.970283,26.5414201 L33.0267591,27.5896098 L34.0832351,26.5414201 C34.5622487,26.0661635 35.0686472,25.6163856 35.6021005,25.1923446 C36.1426287,24.7638215 36.794077,24.2999246 37.5520534,23.8054322 C38.2426213,23.3543849 38.9895404,22.9959098 39.7960039,22.7291436 C40.5763152,22.4709627 41.3289402,22.3440468 42.0582264,22.3440468 C44.9180479,22.3440468 47.0693799,23.0984118 48.598475,24.5806419 L48.5987573,24.5809154 C50.1177566,26.0525874 50.8866322,28.1197143 50.8866322,30.8810338 C50.8866322,33.5914706 49.4200766,36.4519722 46.3819832,39.4671756 L33.0266696,52.2344919 Z M33.0266696,52.2344919 L32.9411407,52.3162552 C32.9459432,52.3121624 33.0079027,52.2870857 33.0267591,52.2870857 C33.0454827,52.2870857 33.1065634,52.3117574 33.1306759,52.3340945 L33.0266696,52.2344919 Z"></path>
                            <use stroke-width="2" xlink:href="#path-1"></use>
                        </g>
                    </g>
                </g>
            </g>
        </g>
    </g>
</svg>