<?xml version="1.0" encoding="UTF-8"?>
<svg width="16px" height="22px" viewBox="0 0 16 22" version="1.1" xmlns="http://www.w3.org/2000/svg" xmlns:xlink="http://www.w3.org/1999/xlink">
    <!-- Generator: Sketch 43 (38999) - http://www.bohemiancoding.com/sketch -->
    <title>medal</title>
    <desc>Created with Sketch.</desc>
    <defs></defs>
    <g id="Welcome" stroke="none" stroke-width="1" fill="none" fill-rule="evenodd" opacity="0.870471014">
        <g id="7.-left-option-(click-on-hamburger)" transform="translate(-48.000000, -101.000000)" fill-rule="nonzero" fill="#FFFFFF">
            <g id="medal" transform="translate(48.000000, 101.000000)">
                <path d="M15.9954286,7.86612245 C15.9954286,3.52897959 12.4068571,0 8,0 C3.59314286,0 0.00457142857,3.52897959 0.00457142857,7.86612245 C0.00457142857,9.76530612 0.694857143,11.5118367 1.83771429,12.8722449 L1.83771429,21.0795918 C1.93371429,22.1436735 3.04457143,22.0853061 3.26857143,21.8563265 L8,18.9514286 L12.7314286,21.8608163 C13.7097143,22.3097959 14.1942857,21.4836735 14.1622857,21.0840816 C14.1622857,21.0840816 14.1622857,12.9126531 14.1577143,12.8812245 C15.3051429,11.5208163 15.9954286,9.76979592 15.9954286,7.86612245 Z M8,1.83183673 C11.3782857,1.83183673 14.1257143,4.53918367 14.1257143,7.86612245 C14.1257143,11.1930612 11.3782857,13.9004082 8,13.9004082 C4.62171429,13.9004082 1.86971429,11.1930612 1.86971429,7.86612245 C1.86971429,4.53918367 4.62171429,1.83183673 8,1.83183673 Z M8.49371429,17.0926531 C8.192,16.9085714 7.808,16.9040816 7.50171429,17.0926531 L3.70285714,19.4273469 L3.70285714,14.5020408 C4.94628571,15.2832653 6.41828571,15.7367347 8,15.7367347 C9.58171429,15.7367347 11.0537143,15.2832653 12.2971429,14.5020408 L12.2971429,19.4318367 L8.49371429,17.0926531 Z" id="Shape"></path>
                <polygon id="Shape" points="7.91771429 11.1122449 9.33485714 11.1122449 9.33485714 4.6244898 6.66514286 4.6244898 6.66514286 5.85918367 7.91771429 5.85918367"></polygon>
            </g>
        </g>
    </g>
</svg>