<?xml version="1.0" encoding="UTF-8"?>
<svg width="25px" height="35px" viewBox="0 0 25 35" version="1.1" xmlns="http://www.w3.org/2000/svg" xmlns:xlink="http://www.w3.org/1999/xlink">
    <!-- Generator: Sketch 43 (38999) - http://www.bohemiancoding.com/sketch -->
    <title>medal</title>
    <desc>Created with Sketch.</desc>
    <defs></defs>
    <g id="Welcome" stroke="none" stroke-width="1" fill="none" fill-rule="evenodd" opacity="0.870471014">
        <g id="19.-Profile" transform="translate(-250.000000, -358.000000)">
            <g id="medal" transform="translate(250.000000, 358.000000)">
                <g id="Group-5">
                    <path d="M24.9857143,12.5142857 C24.9857143,5.61428571 19.3785714,0 12.4928571,0 C5.60714286,0 -1.77635684e-15,5.61428571 -1.77635684e-15,12.5142857 C-1.77635684e-15,15.5357143 1.07857143,18.3142857 2.86428571,20.4785714 L2.86428571,33.5357143 C3.01428571,35.2285714 4.75,35.1357143 5.1,34.7714286 L12.4928571,30.15 L19.8857143,34.7785714 C21.4142857,35.4928571 22.1714286,34.1785714 22.1214286,33.5428571 C22.1214286,33.5428571 22.1214286,20.5428571 22.1142857,20.4928571 C23.9071429,18.3285714 24.9857143,15.5428571 24.9857143,12.5142857 Z M12.4928571,2.91428571 C17.7714286,2.91428571 22.0642857,7.22142857 22.0642857,12.5142857 C22.0642857,17.8071429 17.7714286,22.1142857 12.4928571,22.1142857 C7.21428571,22.1142857 2.91428571,17.8071429 2.91428571,12.5142857 C2.91428571,7.22142857 7.21428571,2.91428571 12.4928571,2.91428571 Z M13.2642857,27.1928571 C12.7928571,26.9 12.1928571,26.8928571 11.7142857,27.1928571 L5.77857143,30.9071429 L5.77857143,23.0714286 C7.72142857,24.3142857 10.0214286,25.0357143 12.4928571,25.0357143 C14.9642857,25.0357143 17.2642857,24.3142857 19.2071429,23.0714286 L19.2071429,30.9142857 L13.2642857,27.1928571 Z" id="Shape" fill="#D08EB6" fill-rule="nonzero"></path>
                    <text id="5" font-family="Roboto-Medium, Roboto" font-size="13" font-weight="400" fill="#D79DC0">
                        <tspan x="8.59375" y="16.2999878">5</tspan>
                    </text>
                </g>
            </g>
        </g>
    </g>
</svg>