<?xml version="1.0" encoding="UTF-8"?>
<svg width="40px" height="40px" viewBox="0 0 40 40" version="1.1" xmlns="http://www.w3.org/2000/svg" xmlns:xlink="http://www.w3.org/1999/xlink">
    <!-- Generator: Sketch 43 (38999) - http://www.bohemiancoding.com/sketch -->
    <title>Group 2</title>
    <desc>Created with Sketch.</desc>
    <defs></defs>
    <g id="Welcome" stroke="none" stroke-width="1" fill="none" fill-rule="evenodd">
        <g id="7.-left-option-(click-on-hamburger)" transform="translate(-36.000000, -148.000000)">
            <g id="list" transform="translate(20.000000, 28.000000)">
                <g id="row" transform="translate(0.000000, 112.000000)">
                    <g id="Group-2" transform="translate(16.000000, 8.000000)">
                        <circle id="avatar" fill="#E6D758" cx="20" cy="20" r="20"></circle>
                        <g id="wallet-outline" opacity="0.872452446" transform="translate(12.000000, 13.000000)" stroke="#FFFFFF" stroke-width="0.8" fill="#FFFFFF" fill-rule="nonzero">
                            <path d="M13.9984013,4.07025875 L13.9984013,0.592633181 C13.9984013,0.318392694 13.8806036,0.16538204 13.6240131,0.0650228311 C13.4263214,-0.0124931507 13.2341354,0.0337047184 13.0000326,0.0958295282 L0.0212398042,4.07025875 L0.0212398042,14.9999391 C0.0212398042,15.5483957 0.468009788,15.9935708 1.01960848,15.9935708 L13.9984013,15.9935708 C14.55,15.9935708 14.99677,15.5484201 14.99677,14.9999391 L14.99677,5.06386606 C14.99677,4.51540944 14.55,4.07025875 13.9984013,4.07025875 Z M13.0000571,1.08943683 L13.0000571,4.07025875 L3.26596248,4.07025875 L13.0000571,1.08943683 Z M13.9984013,10.5287306 L13.9984013,11.0255342 L12.0016395,11.0255342 L12.0016395,10.5287306 L12.0016395,10.0319269 L13.9984013,10.0319269 L13.9984013,10.5287306 Z M13.9984013,9.03829528 L11.5024796,9.03829528 C11.226925,9.03829528 11.0032953,9.26090715 11.0032953,9.53509893 L11.0032953,11.5223135 C11.0032953,11.7965784 11.2269494,12.0191172 11.5024796,12.0191172 L13.9984013,12.0191172 L13.9984013,14.5031355 C13.9984013,14.7774003 13.7747471,14.9999391 13.499217,14.9999391 L1.51879282,14.9999391 C1.24323817,14.9999391 1.01960848,14.777376 1.01960848,14.5031355 L1.01960848,5.06386606 L13.499217,5.06386606 C13.7747716,5.06386606 13.9984013,5.28594216 13.9984013,5.56066971 L13.9984013,9.03829528 Z" id="Shape"></path>
                        </g>
                    </g>
                </g>
            </g>
        </g>
    </g>
</svg>